#N canvas 1491 68 936 838 10;
#X obj 115 25 adc~ 1;
#X obj 115 46 bonk~;
#X obj 115 139 snapshot~;
#X obj 115 195 > 0.98;
#X obj 78 778 dac~;
#X obj 78 751 clip~ -1 1;
#X obj 151 751 clip~ -1 1;
#X obj 151 730 hip~ 1;
#X obj 78 730 hip~ 1;
#X obj 78 630 osc~;
#X obj 78 655 cos~;
#X obj 78 678 *~;
#X obj 134 253 0;
#X obj 84 253 f;
#X obj 115 228 sel 0 1;
#X obj 84 311 < 0.02;
#X obj 55 311 f;
#X obj 84 335 sel 0 1;
#X obj 115 166 t f f;
#X obj 84 280 t f f;
#X obj 103 359 0;
#X obj 103 384 sel 0;
#X obj 130 407 t f f;
#X obj 172 432 * 0.1;
#X obj 115 67 b;
#X obj 130 449 + 0.1;
#X obj 79 474 phasor~ 1;
#X obj 115 499 throw~ phasorSig;
#X obj 141 67 catch~ phasorSig;
#X obj 79 520 threshold~ 0.99 10 0.6 0;
#X obj 172 407 r pccFromUI;
#X obj 410 374 r thresholdFromUI;
#X obj 79 543 random 5;
#X obj 79 565 tabread notes;
#X msg 246 91 \; notes 0 72 74 76 79 81;
#X obj 246 67 loadbang;
#X obj 135 543 table notes 5;
#X obj 79 587 mtof;
#X msg 115 630 0 0 0 \, 0.4 1 0 \, 0 400 2;
#X obj 115 655 vline~;
#X obj 79 608 t b f;
#X obj 78 702 *~ 0.3;
#X connect 0 0 1 0;
#X connect 1 0 24 0;
#X connect 2 0 18 0;
#X connect 3 0 14 0;
#X connect 5 0 4 0;
#X connect 6 0 4 1;
#X connect 7 0 6 0;
#X connect 8 0 5 0;
#X connect 9 0 10 0;
#X connect 10 0 11 0;
#X connect 11 0 41 0;
#X connect 12 0 21 0;
#X connect 13 0 19 0;
#X connect 14 0 13 0;
#X connect 14 1 12 0;
#X connect 15 0 17 0;
#X connect 16 0 21 0;
#X connect 17 0 16 0;
#X connect 17 1 20 0;
#X connect 18 0 3 0;
#X connect 18 1 13 1;
#X connect 19 0 15 0;
#X connect 19 1 16 1;
#X connect 20 0 21 0;
#X connect 21 1 22 0;
#X connect 22 0 25 0;
#X connect 23 0 25 1;
#X connect 24 0 2 0;
#X connect 25 0 26 1;
#X connect 26 0 27 0;
#X connect 26 0 29 0;
#X connect 28 0 2 0;
#X connect 29 0 32 0;
#X connect 30 0 23 0;
#X connect 32 0 33 0;
#X connect 33 0 37 0;
#X connect 35 0 34 0;
#X connect 37 0 40 0;
#X connect 38 0 39 0;
#X connect 39 0 11 1;
#X connect 40 0 38 0;
#X connect 40 1 9 0;
#X connect 41 0 8 0;
#X connect 41 0 7 0;
