#N canvas 1027 114 1355 1067 10;
#X obj 115 46 bonk~;
#X obj 115 139 snapshot~;
#X obj 115 195 > 0.98;
#X obj 77 927 dac~;
#X obj 77 900 clip~ -1 1;
#X obj 150 900 clip~ -1 1;
#X obj 150 879 hip~ 1;
#X obj 77 879 hip~ 1;
#X obj 77 779 osc~;
#X obj 77 804 cos~;
#X obj 77 827 *~;
#X obj 134 253 0;
#X obj 84 253 f;
#X obj 115 228 sel 0 1;
#X obj 84 311 < 0.02;
#X obj 55 311 f;
#X obj 84 335 sel 0 1;
#X obj 115 166 t f f;
#X obj 84 280 t f f;
#X obj 103 359 0;
#X obj 103 384 sel 0;
#X obj 130 407 t f f;
#X obj 172 432 * 0.1;
#X obj 115 67 b;
#X obj 130 449 + 0.1;
#X obj 79 518 phasor~ 1;
#X obj 140 542 throw~ phasorSig;
#X obj 141 67 catch~ phasorSig;
#X obj 172 385 r pccFromUI;
#X obj 249 385 r thresholdFromUI;
#X obj 79 637 random 5;
#X obj 79 659 tabread notes;
#X msg 260 24 \; notes 0 72 74 76 79 81;
#X obj 260 0 loadbang;
#X obj 135 637 table notes 5;
#X obj 79 681 mtof;
#X msg 114 779 0 0 0 \, 0.4 1 0 \, 0 400 2;
#X obj 114 804 vline~;
#X obj -27 720 s fromPd;
#X obj -27 695 1;
#X obj 4 671 del 100;
#X obj 4 695 0;
#X obj 214 413 f;
#X obj 77 851 *~ 0.1;
#X obj 349 423 f;
#X msg 249 420 minvel \$1;
#X obj 249 442 s toBonk;
#X obj 260 90 s toBonk;
#X obj 185 30 r toBonk;
#X obj 473 965 s listFromPd;
#X obj 269 245 r getParameters;
#X obj 441 315 loadbang;
#X text 711 718 Håkon Knutzen \, 2014 \, Robin \, IFI \, UiO;
#X obj 80 554 delta~;
#X obj 130 486 clip 0 1;
#X obj 80 578 <~ 0;
#X obj 80 603 threshold~ 1 5 0.5 5;
#X obj 172 7 line~;
#X obj 107 6 *~;
#X obj 317 698 0;
#X obj 352 699 1;
#X obj 323 770 s selfHearEnable;
#X obj 172 -38 r selfHearEnable;
#X obj 79 702 t b f b;
#X obj 172 -15 pack f 5;
#X obj 397 671 r deafPeriodFromUI;
#X obj 190 733 spigot;
#X obj 222 649 loadbang;
#X obj 329 834 r enableDeaf;
#X obj 256 701 f;
#X obj 415 710 f;
#X obj 529 674 loadbang;
#X obj 269 276 t b b b b;
#X obj 473 872 pack f f f f;
#X msg 473 896 list deafPeriod \$1 deafEnable \$2 pcc \$3 threshold
\$4;
#X text 708 694 adaptation of Kristian Nymoen's patch;
#X obj 352 735 pipe 400;
#X obj 427 770 print hearing;
#X obj 528 697 20;
#X text 567 861 NB! list must conform to pattern <key> <value> \, i.e.
\, <string> <float>;
#X obj 222 671 0;
#X obj 471 374 70;
#X text 419 294 default parameters: PCC 0.1 \, bonk minimum velocity
70;
#X text -37 650 for firefly image;
#X text 226 634 default: deaf disabled;
#X text 526 656 default deaf period 20 ms;
#X obj 227 126 print fromBonk;
#X obj 428 374 0.3;
#X obj 45 -74 adc~;
#X msg 260 67 thresh 7 10;
#X obj 398 447 print bonkMinVel;
#X obj 293 -57 loadbang;
#X obj 284 -32 1;
#X connect 0 0 23 0;
#X connect 0 1 86 0;
#X connect 1 0 17 0;
#X connect 2 0 13 0;
#X connect 4 0 3 0;
#X connect 5 0 3 1;
#X connect 6 0 5 0;
#X connect 7 0 4 0;
#X connect 8 0 9 0;
#X connect 9 0 10 0;
#X connect 10 0 43 0;
#X connect 11 0 20 0;
#X connect 12 0 18 0;
#X connect 13 0 12 0;
#X connect 13 1 11 0;
#X connect 14 0 16 0;
#X connect 15 0 20 0;
#X connect 16 0 15 0;
#X connect 16 1 19 0;
#X connect 17 0 2 0;
#X connect 17 1 12 1;
#X connect 18 0 14 0;
#X connect 18 1 15 1;
#X connect 19 0 20 0;
#X connect 20 1 21 0;
#X connect 21 0 24 0;
#X connect 21 1 22 0;
#X connect 22 0 24 1;
#X connect 23 0 1 0;
#X connect 24 0 54 0;
#X connect 25 0 26 0;
#X connect 25 0 53 0;
#X connect 27 0 1 0;
#X connect 28 0 42 1;
#X connect 28 0 22 1;
#X connect 29 0 44 1;
#X connect 29 0 45 0;
#X connect 29 0 90 0;
#X connect 30 0 31 0;
#X connect 31 0 35 0;
#X connect 33 0 32 0;
#X connect 33 0 89 0;
#X connect 35 0 63 0;
#X connect 36 0 37 0;
#X connect 37 0 10 1;
#X connect 39 0 38 0;
#X connect 40 0 41 0;
#X connect 41 0 38 0;
#X connect 42 0 73 2;
#X connect 43 0 7 0;
#X connect 43 0 6 0;
#X connect 44 0 73 3;
#X connect 45 0 46 0;
#X connect 48 0 0 0;
#X connect 50 0 72 0;
#X connect 51 0 81 0;
#X connect 51 0 87 0;
#X connect 53 0 55 0;
#X connect 54 0 25 1;
#X connect 55 0 56 0;
#X connect 56 0 30 0;
#X connect 56 0 39 0;
#X connect 56 0 40 0;
#X connect 57 0 58 1;
#X connect 58 0 0 0;
#X connect 59 0 61 0;
#X connect 59 0 77 0;
#X connect 60 0 76 0;
#X connect 62 0 64 0;
#X connect 63 0 36 0;
#X connect 63 1 8 0;
#X connect 63 2 66 0;
#X connect 64 0 57 0;
#X connect 65 0 70 1;
#X connect 65 0 76 1;
#X connect 66 0 59 0;
#X connect 66 0 60 0;
#X connect 67 0 80 0;
#X connect 68 0 69 1;
#X connect 68 0 66 1;
#X connect 69 0 73 1;
#X connect 70 0 73 0;
#X connect 71 0 78 0;
#X connect 72 0 70 0;
#X connect 72 1 69 0;
#X connect 72 2 42 0;
#X connect 72 3 44 0;
#X connect 73 0 74 0;
#X connect 74 0 49 0;
#X connect 76 0 61 0;
#X connect 76 0 77 0;
#X connect 78 0 70 1;
#X connect 78 0 76 1;
#X connect 80 0 66 1;
#X connect 80 0 69 1;
#X connect 81 0 44 1;
#X connect 81 0 45 0;
#X connect 87 0 42 1;
#X connect 87 0 22 1;
#X connect 88 0 58 0;
#X connect 88 1 58 0;
#X connect 89 0 47 0;
#X connect 91 0 92 0;
#X connect 92 0 57 0;
