#N canvas 380 71 1162 1078 10;
#X obj 115 46 bonk~;
#X obj 115 139 snapshot~;
#X obj 115 195 > 0.98;
#X obj 77 927 dac~;
#X obj 77 900 clip~ -1 1;
#X obj 150 900 clip~ -1 1;
#X obj 150 879 hip~ 1;
#X obj 77 879 hip~ 1;
#X obj 77 779 osc~;
#X obj 77 804 cos~;
#X obj 77 827 *~;
#X obj 134 253 0;
#X obj 84 253 f;
#X obj 115 228 sel 0 1;
#X obj 84 311 < 0.02;
#X obj 55 311 f;
#X obj 84 335 sel 0 1;
#X obj 115 166 t f f;
#X obj 84 280 t f f;
#X obj 103 359 0;
#X obj 103 384 sel 0;
#X obj 130 407 t f f;
#X obj 172 432 * 0.1;
#X obj 115 67 b;
#X obj 130 449 + 0.1;
#X obj 79 518 phasor~ 1;
#X obj 149 537 throw~ phasorSig;
#X obj 124 100 catch~ phasorSig;
#X obj 172 385 r pccFromUI;
#X obj 249 385 r thresholdFromUI;
#X obj 79 637 random 5;
#X obj 79 659 tabread notes;
#X msg 260 24 \; notes 0 72 74 76 79 81;
#X obj 260 0 loadbang;
#X obj 135 637 table notes 5;
#X obj 79 681 mtof;
#X obj 117 791 vline~;
#X obj -27 720 s fromPd;
#X obj -27 695 1;
#X obj 4 671 del 100;
#X obj 4 695 0;
#X obj 214 413 f;
#X obj 349 423 f;
#X msg 249 420 minvel \$1;
#X obj 249 442 s toBonk;
#X obj 260 90 s toBonk;
#X obj 185 30 r toBonk;
#X obj 473 920 s listFromPd;
#X obj 269 245 r getParameters;
#X obj 441 315 loadbang;
#X text 871 943 Håkon Knutzen \, 2014 \, Robin \, IFI \, UiO;
#X obj 79 554 delta~;
#X obj 130 486 clip 0 1;
#X obj 79 578 <~ 0;
#X obj 79 603 threshold~ 1 5 0.5 5;
#X obj 130 -29 line~;
#X obj 115 20 *~;
#X obj 317 711 0;
#X obj 323 770 s selfHearEnable;
#X obj 130 -69 r selfHearEnable;
#X obj 79 702 t b f b;
#X obj 439 645 r deafPeriodFromUI;
#X obj 190 733 spigot;
#X obj 222 649 loadbang;
#X obj 313 822 r enableDeaf;
#X obj 256 701 f;
#X obj 423 710 f;
#X obj 529 674 loadbang;
#X obj 269 276 t b b b b;
#X obj 473 872 pack f f f f;
#X msg 473 896 list deafPeriod \$1 deafEnable \$2 pcc \$3 threshold
\$4;
#X text 871 923 adaptation of Kristian Nymoen's patch;
#X obj 427 771 print hearing;
#X text 567 861 NB! list must conform to pattern <key> <value> \, i.e.
\, <string> <float>;
#X obj 471 374 70;
#X text 435 296 default parameters: PCC 0.1 \, bonk minimum velocity
70;
#X text -37 650 for firefly image;
#X text 226 634 default: deaf disabled;
#X obj 94 -69 adc~;
#X msg 260 67 thresh 7 10;
#X obj 233 -90 loadbang;
#X obj 233 -69 1;
#X msg 231 137 \$2;
#X obj 231 163 s bonkInput;
#X obj 630 194 hsl 128 15 0 100 0 0 empty empty empty -2 -8 0 10 -262144
-1 -1 0 1;
#X floatatom 627 217 5 0 0 0 - - -;
#X obj 115 818 *~;
#X msg 117 766 0 0 0 \, 1 1 0 \, 0 400 2;
#X obj 516 540 tgl 15 0 empty empty empty 17 7 0 10 -262144 -1 -1 0
1;
#X obj 337 675 del 400;
#X obj 384 726 1;
#X obj 77 851 *~ 1;
#X text 523 518 deaf enable;
#X obj 428 374 0.1;
#X obj 94 -29 *~ 1;
#X floatatom 569 584 5 0 0 0 - - -;
#X obj 130 -4 *~;
#X msg 352 699 1 50;
#X msg 632 622 set 1 \$1;
#X floatatom 632 590 5 0 0 0 - - -;
#X obj 222 671 1;
#X obj 528 697 10;
#X text 569 566 deafness duration;
#X text 666 587 exp raise time;
#X text 712 445 25 deafness duration \, 100 exptime;
#X text 710 468 deafness duration 10 \, exptime 143;
#X text 715 419 experimenting with values:;
#X text 394 822 <-from UI;
#X text 31 722 <- send to UI;
#X text 228 213 "poll" request from objective-c code triggers a sequence
of bangs to get the values;
#X text 625 175 for testing minvel of bonk;
#X text 226 903 <- clip range;
#X text 203 878 <- filter out DC if any;
#X text 144 807 <- exp amplitude envelope;
#X text 123 556 <- difference value;
#X text 416 28 <- setting notes in array;
#X text 33 -69 input ->;
#X text 3 44 onset detection->;
#X text 261 131 <- sending the detected velocity such that the label
in the UI can be updated;
#X text -44 793 audio synthesis ->;
#X connect 0 0 23 0;
#X connect 0 1 82 0;
#X connect 1 0 17 0;
#X connect 2 0 13 0;
#X connect 4 0 3 0;
#X connect 5 0 3 1;
#X connect 6 0 5 0;
#X connect 7 0 4 0;
#X connect 8 0 9 0;
#X connect 9 0 10 0;
#X connect 10 0 91 0;
#X connect 11 0 20 0;
#X connect 12 0 18 0;
#X connect 13 0 12 0;
#X connect 13 1 11 0;
#X connect 14 0 16 0;
#X connect 15 0 20 0;
#X connect 16 0 15 0;
#X connect 16 1 19 0;
#X connect 17 0 2 0;
#X connect 17 1 12 1;
#X connect 18 0 14 0;
#X connect 18 1 15 1;
#X connect 19 0 20 0;
#X connect 20 1 21 0;
#X connect 21 0 24 0;
#X connect 21 1 22 0;
#X connect 22 0 24 1;
#X connect 23 0 1 0;
#X connect 24 0 52 0;
#X connect 25 0 26 0;
#X connect 25 0 51 0;
#X connect 27 0 1 0;
#X connect 28 0 41 1;
#X connect 28 0 22 1;
#X connect 29 0 42 1;
#X connect 29 0 43 0;
#X connect 30 0 31 0;
#X connect 31 0 35 0;
#X connect 33 0 32 0;
#X connect 33 0 79 0;
#X connect 35 0 60 0;
#X connect 36 0 86 0;
#X connect 36 0 86 1;
#X connect 38 0 37 0;
#X connect 39 0 40 0;
#X connect 40 0 37 0;
#X connect 41 0 69 2;
#X connect 42 0 69 3;
#X connect 43 0 44 0;
#X connect 46 0 0 0;
#X connect 48 0 68 0;
#X connect 49 0 74 0;
#X connect 49 0 93 0;
#X connect 51 0 53 0;
#X connect 52 0 25 1;
#X connect 53 0 54 0;
#X connect 54 0 30 0;
#X connect 54 0 38 0;
#X connect 54 0 39 0;
#X connect 55 0 96 0;
#X connect 55 0 96 1;
#X connect 56 0 0 0;
#X connect 57 0 58 0;
#X connect 57 0 72 0;
#X connect 59 0 55 0;
#X connect 60 0 87 0;
#X connect 60 1 8 0;
#X connect 60 2 62 0;
#X connect 61 0 66 1;
#X connect 61 0 89 1;
#X connect 62 0 89 0;
#X connect 62 0 57 0;
#X connect 63 0 100 0;
#X connect 64 0 65 1;
#X connect 64 0 62 1;
#X connect 65 0 69 1;
#X connect 66 0 69 0;
#X connect 67 0 101 0;
#X connect 68 0 66 0;
#X connect 68 1 65 0;
#X connect 68 2 41 0;
#X connect 68 3 42 0;
#X connect 69 0 70 0;
#X connect 70 0 47 0;
#X connect 74 0 42 1;
#X connect 74 0 43 0;
#X connect 78 0 94 0;
#X connect 78 1 94 0;
#X connect 79 0 45 0;
#X connect 80 0 81 0;
#X connect 81 0 55 0;
#X connect 82 0 83 0;
#X connect 84 0 85 0;
#X connect 85 0 43 0;
#X connect 86 0 10 1;
#X connect 87 0 36 0;
#X connect 88 0 62 1;
#X connect 89 0 97 0;
#X connect 89 0 90 0;
#X connect 90 0 72 0;
#X connect 91 0 7 0;
#X connect 91 0 6 0;
#X connect 93 0 41 1;
#X connect 93 0 22 1;
#X connect 94 0 56 0;
#X connect 95 0 89 1;
#X connect 96 0 56 1;
#X connect 97 0 58 0;
#X connect 98 0 97 0;
#X connect 99 0 98 0;
#X connect 100 0 62 1;
#X connect 100 0 65 1;
#X connect 101 0 66 1;
#X connect 101 0 89 1;
